<?xml version="1.0" encoding="UTF-8" standalone="no"?><!DOCTYPE svg PUBLIC "-//W3C//DTD SVG 1.1//EN" "http://www.w3.org/Graphics/SVG/1.1/DTD/svg11.dtd"><svg width="100%" height="100%" viewBox="0 0 1438 1438" version="1.1" xmlns="http://www.w3.org/2000/svg" xmlns:xlink="http://www.w3.org/1999/xlink" xml:space="preserve" xmlns:serif="http://www.serif.com/" style="fill-rule:evenodd;clip-rule:evenodd;stroke-linejoin:round;stroke-miterlimit:2;"><path d="M1107.22,335c-0,-0 9.25,-21.438 9.25,-46.656c-0,-28.469 -7.813,-62.282 -23.157,-100.469c-1.875,-4.656 -2.843,-9.531 -2.843,-14.531c-0,-17.656 11.75,-33.094 28.593,-37.469c10.344,-2.687 21.407,-0.781 30.282,5.219c8.843,5.937 14.843,15.469 16.468,26.125c2.032,13.125 3,25.375 3,37.5c0,26.844 -5,51.469 -14.843,73.531c11.343,-22.719 34.968,-68.844 44.875,-79.375c13.281,-14.156 32.656,-18.844 48.031,-3.469c13.594,13.594 7.937,32 -6.219,45.282c-10.531,9.906 -56.656,33.531 -79.375,44.875c22.063,-9.844 46.688,-14.844 73.531,-14.844c12.125,-0 24.375,0.969 37.5,3c10.657,1.625 20.157,7.625 26.125,16.469c6,8.875 7.907,19.937 5.219,30.281c-4.375,16.812 -19.781,28.594 -37.437,28.594c-5,-0 -9.875,-0.969 -14.532,-2.844c-38.218,-15.375 -69.375,-20.531 -97.843,-20.531c-25.219,-0 -46.563,9.343 -46.563,9.343" style="fill:#ab182d;fill-rule:nonzero;"/><path d="M1054.06,383.531c18.25,-170.344 -74.031,-314.094 -164.656,-383.531c0,0 -140.75,140.594 -186.937,186.937c-179.907,180.532 -134.875,418.5 -2.344,551.844c131.687,130.844 371.281,177.5 550.531,-3.656l186.938,-186.938c-71.719,-89.031 -212.969,-182.718 -383.532,-164.656m154.282,316.563c-149.625,151.187 -359.313,108.687 -469.25,-0.532c-110.594,-111.312 -156.375,-315.718 -6.219,-466.375c38.531,-38.656 156.187,-156.187 156.187,-156.187c68.938,52.813 119.844,170.719 111.375,319.969c-14.593,4.593 -29.218,10.219 -39.656,16.75c-1.094,0.656 -2.187,1.344 -3.219,2.125c-2.187,1.562 -4.187,3.125 -5.843,4.781c-18.063,18.063 -18.063,47.375 -0,65.438c18.062,18.062 47.375,18.062 65.437,-0c1.625,-1.626 3.219,-3.657 4.781,-5.844c0.75,-1.063 1.469,-2.125 2.125,-3.219c6.5,-10.375 12.125,-24.938 16.688,-39.469c149.406,-8 264.937,42.938 319.5,110.688l-151.906,151.906l-0,-0.031Z" style="fill:#d0b787;fill-rule:nonzero;"/><path d="M384.281,1054.84c-18.25,170.343 74.031,314.093 164.656,383.531c0,0 140.75,-140.594 186.938,-186.938c179.906,-180.531 134.875,-418.499 2.344,-551.843c-131.688,-130.844 -371.282,-177.5 -550.532,3.656l-186.906,186.906c71.719,89.032 212.969,182.719 383.531,164.657m-154.281,-316.532c149.625,-151.187 359.313,-108.687 469.25,0.531c110.594,111.313 156.375,315.719 6.219,466.375c-38.531,38.657 -156.188,156.188 -156.188,156.188c-68.937,-52.813 -119.843,-170.719 -111.375,-319.969c14.594,-4.594 29.219,-10.218 39.657,-16.75c1.093,-0.656 2.187,-1.344 3.218,-2.125c2.188,-1.562 4.188,-3.125 5.844,-4.781c18.063,-18.063 18.063,-47.375 0,-65.438c-18.062,-18.062 -47.375,-18.062 -65.437,0c-1.625,1.625 -3.219,3.657 -4.782,5.844c-0.75,1.063 -1.468,2.125 -2.125,3.219c-6.5,10.375 -12.125,24.937 -16.687,39.469c-149.406,8 -264.938,-42.938 -319.5,-110.688l151.906,-151.906l0,0.031Z" style="fill:#d0b787;fill-rule:nonzero;"/><path d="M383.531,384.281c-170.344,-18.25 -314.094,74.031 -383.531,164.656c0,0 140.594,140.75 186.937,186.938c180.532,179.906 418.5,134.875 551.844,2.344c130.844,-131.688 177.5,-371.282 -3.656,-550.532l-186.938,-186.906c-89.031,71.719 -182.718,212.969 -164.656,383.531m316.563,-154.281c151.187,149.625 108.687,359.313 -0.532,469.25c-111.312,110.594 -315.718,156.375 -466.375,6.219c-38.656,-38.531 -156.187,-156.188 -156.187,-156.188c52.813,-68.937 170.719,-119.843 319.969,-111.375c4.593,14.594 10.219,29.219 16.75,39.657c0.656,1.093 1.344,2.187 2.125,3.218c1.562,2.188 3.125,4.188 4.781,5.844c18.063,18.063 47.375,18.063 65.438,0c18.062,-18.062 18.062,-47.375 -0,-65.437c-1.626,-1.625 -3.657,-3.219 -5.844,-4.782c-1.063,-0.75 -2.125,-1.468 -3.219,-2.125c-10.375,-6.5 -24.938,-12.125 -39.469,-16.687c-8,-149.406 42.938,-264.938 110.688,-319.5l151.906,151.906l-0.031,0Z" style="fill:#d0b787;fill-rule:nonzero;"/><path d="M1054.84,1054.06c170.343,18.25 314.093,-74.031 383.531,-164.656c0,0 -140.594,-140.75 -186.938,-186.937c-180.531,-179.907 -418.499,-134.875 -551.843,-2.344c-130.844,131.687 -177.5,371.281 3.656,550.531l186.938,186.938c89.031,-71.719 182.718,-212.969 164.656,-383.532m-316.563,154.282c-151.187,-149.625 -108.687,-359.313 0.532,-469.25c111.312,-110.594 315.718,-156.375 466.374,-6.219c38.657,38.531 156.188,156.187 156.188,156.187c-52.813,68.938 -170.719,119.844 -319.969,111.375c-4.594,-14.593 -10.218,-29.218 -16.75,-39.656c-0.656,-1.094 -1.344,-2.187 -2.125,-3.219c-1.562,-2.187 -3.125,-4.187 -4.781,-5.843c-18.063,-18.063 -47.375,-18.063 -65.438,-0c-18.062,18.062 -18.062,47.375 0,65.437c1.625,1.625 3.657,3.219 5.844,4.781c1.063,0.75 2.125,1.469 3.219,2.125c10.375,6.5 24.937,12.125 39.469,16.688c8,149.406 -42.938,264.937 -110.688,319.5l-151.906,-151.906l0.031,-0Z" style="fill:#d0b787;fill-rule:nonzero;"/><path d="M1099.56,1101.41c-0.001,0 21.437,9.25 46.656,9.25c28.468,0 62.281,-7.812 100.468,-23.156c4.657,-1.875 9.532,-2.844 14.532,-2.844c17.656,0 33.062,11.75 37.437,28.594c2.688,10.344 0.781,21.406 -5.219,30.281c-5.937,8.844 -15.468,14.844 -26.125,16.469c-13.125,2.031 -25.375,3 -37.5,3c-26.843,-0 -51.468,-5 -73.531,-14.844c22.719,11.344 68.844,34.969 79.375,44.875c14.156,13.281 18.844,32.656 3.469,48.031c-13.594,13.594 -32,7.938 -45.281,-6.218c-9.907,-10.532 -33.532,-56.657 -44.875,-79.375c9.843,22.062 14.843,46.687 14.843,73.531c0,12.125 -0.968,24.375 -3,37.5c-1.625,10.656 -7.625,20.156 -16.468,26.125c-8.875,6 -19.938,7.906 -30.282,5.219c-16.812,-4.375 -28.593,-19.782 -28.593,-37.438c-0,-5 0.968,-9.875 2.843,-14.531c15.375,-38.219 20.532,-69.375 20.532,-97.844c-0,-25.219 -9.344,-46.562 -9.344,-46.562" style="fill:#77b82e;fill-rule:nonzero;"/><path d="M334.906,1104.5c0,-0 -9.25,21.469 -9.25,46.656c0,28.469 7.813,62.281 23.156,100.469c1.875,4.656 2.844,9.531 2.844,14.531c0,17.656 -11.75,33.094 -28.594,37.469c-10.343,2.687 -21.406,0.781 -30.281,-5.219c-8.844,-5.937 -14.844,-15.469 -16.469,-26.125c-2.031,-13.125 -3,-25.375 -3,-37.5c0,-26.844 5,-51.469 14.844,-73.531c-11.344,22.719 -34.969,68.844 -44.875,79.375c-13.281,14.156 -32.656,18.844 -48.031,3.469c-13.594,-13.594 -7.938,-32 6.219,-45.282c10.531,-9.906 56.656,-33.531 79.375,-44.875c-22.063,9.844 -46.688,14.844 -73.532,14.844c-12.125,0 -24.375,-0.969 -37.5,-3c-10.656,-1.625 -20.156,-7.625 -26.125,-16.469c-6,-8.875 -7.906,-19.937 -5.218,-30.281c4.375,-16.812 19.781,-28.594 37.437,-28.594c5,0 9.875,0.969 14.531,2.844c38.219,15.375 69.375,20.531 97.844,20.531c25.219,0 46.563,-9.343 46.563,-9.343" style="fill:#0bb5ce;fill-rule:nonzero;"/><path d="M342.594,338.125c-0,-0 -21.438,-9.25 -46.657,-9.25c-28.468,0 -62.281,7.813 -100.468,23.156c-4.657,1.875 -9.532,2.844 -14.532,2.844c-17.656,-0 -33.062,-11.75 -37.437,-28.594c-2.688,-10.344 -0.781,-21.406 5.219,-30.281c5.937,-8.844 15.468,-14.844 26.125,-16.469c13.125,-2.031 25.375,-3 37.5,-3c26.843,0 51.468,5 73.531,14.844c-22.719,-11.344 -68.844,-34.969 -79.375,-44.875c-14.156,-13.281 -18.844,-32.656 -3.469,-48.031c13.594,-13.594 32,-7.938 45.281,6.219c9.907,10.531 33.532,56.656 44.875,79.375c-9.843,-22.063 -14.843,-46.688 -14.843,-73.532c-0,-12.125 0.968,-24.375 3,-37.5c1.625,-10.656 7.625,-20.156 16.468,-26.125c8.875,-6 19.938,-7.906 30.282,-5.219c16.812,4.375 28.593,19.782 28.593,37.438c0,5 -0.968,9.875 -2.843,14.531c-15.375,38.219 -20.532,69.375 -20.532,97.844c0,25.219 9.344,46.563 9.344,46.563" style="fill:#f0811a;fill-rule:nonzero;"/></svg>