<?xml version="1.0" encoding="UTF-8"?>
<svg id="Capa_2" data-name="Capa 2" xmlns="http://www.w3.org/2000/svg" viewBox="0 0 664.02 200.98">
  <defs>
    <style>
      .cls-1 {
        fill: #ef8c00;
      }

      .cls-2 {
        fill: #ab0465;
      }

      .cls-3 {
        fill: #6fb125;
      }

      .cls-4 {
        fill: #a61025;
      }

      .cls-5 {
        fill: #d1ba88;
      }

      .cls-6 {
        fill: #571474;
      }

      .cls-7 {
        fill: #59afc9;
      }
    </style>
  </defs>
  <g id="Capa_1-2" data-name="Capa 1">
    <g>
      <g>
        <path class="cls-5" d="M236,142.49c.04,1.2.62,2.32,1.66,3.28,1.04.95,2.41,1.41,4.03,1.41,3.19,0,5.06-1.71,5.39-3.9.12-2.36-1.37-3.9-4.53-4.64l-3.61-.91c-4.73-1.28-7.1-3.81-7.1-7.67,0-2.36.91-4.32,2.78-5.85,1.87-1.54,4.06-2.33,6.64-2.33,2.7,0,4.9.79,6.64,2.32,1.78,1.53,2.66,3.57,2.66,6.14h-4.4c0-2.61-1.99-4.31-4.98-4.31-2.7,0-4.94,1.62-4.93,3.94,0,1.83,1.29,3.07,3.82,3.73l3.65.95c5.64,1.49,8.18,4.68,7.72,8.87-.21,2.28-1.24,4.11-3.02,5.56-1.78,1.41-4.02,2.12-6.72,2.12-2.9,0-5.31-.87-7.22-2.57-1.91-1.7-2.87-3.77-2.87-6.14h4.4Z"/>
        <path class="cls-5" d="M257.08,150.77l-.02-28.59h17.22s0,4.05,0,4.05h-12.82s0,8.47,0,8.47h11.2s0,4.02,0,4.02h-11.2s0,8.02,0,8.02h13.24s0,4.01,0,4.01h-17.63Z"/>
        <path class="cls-5" d="M304.38,145.89c-2.53,3.32-6.51,5.27-11.12,5.28-4.02,0-7.47-1.41-10.25-4.27-2.78-2.86-4.2-6.3-4.2-10.37,0-4.07,1.41-7.51,4.18-10.38,2.78-2.86,6.22-4.32,10.25-4.32,4.48,0,8.42,1.94,11.04,5.14l-3.4,2.66c-2.12-2.36-4.65-3.57-7.64-3.56-2.82,0-5.19,1.04-7.13,3.08-1.95,2.03-2.9,4.48-2.9,7.39,0,2.9.96,5.35,2.91,7.38s4.32,3.02,7.14,3.02c3.2,0,5.77-1.25,7.72-3.74l3.4,2.7Z"/>
        <path class="cls-5" d="M328.98,150.72h-5.35s-7.14-10.49-7.14-10.49h-3.07s0,10.5,0,10.5h-4.44s-.02-28.58-.02-28.58h11.16c2.86,0,5.06.86,6.52,2.64,1.45,1.78,2.2,3.9,2.2,6.43,0,2.28-.62,4.27-1.86,5.93-1.2,1.66-3.07,2.62-5.52,2.91l7.52,10.66ZM313.41,126.21v10s6.4,0,6.4,0c5.97.29,5.88-10.25.16-10h-6.56Z"/>
        <path class="cls-5" d="M334.79,150.72l-.02-28.59h17.22s0,4.05,0,4.05h-12.82s0,8.47,0,8.47h11.2s0,4.02,0,4.02h-11.2s0,8.02,0,8.02h13.24s0,4.02,0,4.02h-17.63Z"/>
        <path class="cls-5" d="M355.72,126.23v-4.11s21.32-.01,21.32-.01v4.11s-8.42,0-8.42,0l.02,24.48h-4.48s-.02-24.48-.02-24.48h-8.42Z"/>
        <path class="cls-5" d="M400.18,150.68l-2.74-7.14h-11.54s-2.73,7.15-2.73,7.15h-4.69s10.77-28.59,10.77-28.59h4.77s10.81,28.58,10.81,28.58h-4.65ZM391.66,127.61l-4.26,11.99h8.55s-4.28-11.99-4.28-11.99Z"/>
        <path class="cls-5" d="M428.8,150.66h-5.35s-7.14-10.49-7.14-10.49h-3.07s0,10.5,0,10.5h-4.44s-.02-28.59-.02-28.59h11.16c2.86,0,5.06.86,6.52,2.64,1.45,1.78,2.2,3.9,2.2,6.43,0,2.28-.62,4.27-1.86,5.94-1.2,1.66-3.07,2.61-5.52,2.91l7.52,10.66ZM413.23,126.15v10s6.39,0,6.39,0c5.98.29,5.88-10.25.16-10h-6.55Z"/>
        <path class="cls-5" d="M438.99,122.06l.02,28.59h-4.4s-.02-28.59-.02-28.59h4.4ZM438.86,112.48h4.81s-5.22,6.56-5.22,6.56h-3.74s4.15-6.56,4.15-6.56Z"/>
        <path class="cls-5" d="M464.7,150.63l-2.74-7.14h-11.54s-2.73,7.15-2.73,7.15h-4.69s10.77-28.59,10.77-28.59h4.77s10.81,28.58,10.81,28.58h-4.65ZM456.17,127.57l-4.27,11.99h8.55s-4.28-11.99-4.28-11.99Z"/>
        <path class="cls-5" d="M483.86,150.62l-.02-28.59h11.12c3.94-.01,7.1,1.36,9.38,4.05,2.32,2.69,3.49,6.1,3.49,10.29,0,4.15-1.16,7.55-3.44,10.25-2.28,2.66-5.43,3.99-9.41,3.99h-11.12ZM488.24,126.14v20.41s6.74,0,6.74,0c2.69,0,4.81-.96,6.26-2.87,1.45-1.91,2.19-4.36,2.19-7.3,0-2.99-.75-5.44-2.25-7.34-1.45-1.95-3.53-2.9-6.22-2.9h-6.72Z"/>
        <path class="cls-5" d="M513.69,150.6l-.02-28.59h17.22s0,4.05,0,4.05h-12.82s0,8.47,0,8.47h11.2s0,4.02,0,4.02h-11.2s0,8.02,0,8.02h13.24s0,4.01,0,4.01h-17.64Z"/>
      </g>
      <g>
        <path class="cls-5" d="M252.7,178.53c-1.87-1.78-4.11-2.69-6.72-2.69-2.82,0-5.23,1.04-7.18,3.07-1.95,2.03-2.9,4.53-2.9,7.43,0,2.9.96,5.39,2.91,7.42,1.95,2.03,4.36,3.07,7.18,3.07,2.36,0,4.36-.63,5.97-1.91,1.62-1.29,2.49-2.99,2.61-5.11h-8.01s0-3.77,0-3.77h13.07c0,9.91-5.18,14.93-13.64,14.94-4.03,0-7.47-1.41-10.29-4.27-2.78-2.86-4.19-6.3-4.2-10.37,0-4.07,1.41-7.51,4.18-10.38,2.78-2.86,6.22-4.32,10.29-4.32,3.94,0,7.26,1.32,9.96,4.02l-3.23,2.86Z"/>
        <path class="cls-5" d="M267.01,175.91c2.78-2.86,6.22-4.28,10.25-4.28,4.07,0,7.51,1.41,10.29,4.27,2.82,2.86,4.24,6.3,4.24,10.41,0,4.07-1.41,7.51-4.23,10.38-2.78,2.86-6.22,4.28-10.29,4.28-4.02,0-7.47-1.41-10.25-4.27-2.78-2.86-4.19-6.3-4.2-10.37,0-4.11,1.41-7.55,4.18-10.42ZM267.23,186.32c0,2.86.96,5.31,2.91,7.34,1.95,1.99,4.32,2.98,7.14,2.98,2.82,0,5.19-1,7.13-2.99,1.95-2.03,2.94-4.48,2.94-7.34,0-2.86-1-5.31-2.95-7.34-1.95-2.03-4.32-3.02-7.14-3.02-2.82,0-5.19,1-7.13,3.03-1.95,2.04-2.9,4.48-2.9,7.35Z"/>
        <path class="cls-5" d="M312.66,185.3c1.58.37,2.82,1.2,3.78,2.57.96,1.37,1.45,2.78,1.45,4.27,0,2.36-.78,4.36-2.36,5.98-1.53,1.62-3.61,2.41-6.22,2.41h-11.82s-.02-28.58-.02-28.58h10.95c4.85-.01,7.93,2.89,7.93,7.54,0,2.9-1.24,4.85-3.69,5.81ZM301.91,183.69h6.35c2.2,0,3.53-1.75,3.52-4.03,0-2.32-1.46-3.69-3.82-3.69h-6.06s0,7.72,0,7.72ZM301.91,187.46v9.04s7.18,0,7.18,0c2.53,0,4.19-2.08,4.19-4.4,0-1.16-.42-2.24-1.2-3.19-.79-.95-1.83-1.45-3.11-1.45h-7.05Z"/>
        <path class="cls-5" d="M323.58,200.52l-.02-28.59h4.4s.02,28.58.02,28.58h-4.4Z"/>
        <path class="cls-5" d="M335.45,200.51l-.02-28.59h17.22s0,4.05,0,4.05h-12.82s0,8.47,0,8.47h11.2s0,4.02,0,4.02h-11.2s0,8.02,0,8.02h13.24s0,4.02,0,4.02h-17.63Z"/>
        <path class="cls-5" d="M378.97,200.48h-5.35s-7.14-10.49-7.14-10.49h-3.07s0,10.5,0,10.5h-4.44s-.02-28.58-.02-28.58h11.16c2.86,0,5.06.86,6.52,2.64,1.45,1.78,2.2,3.9,2.2,6.43,0,2.28-.62,4.27-1.86,5.93-1.2,1.66-3.07,2.61-5.52,2.91l7.52,10.66ZM363.39,175.97v10s6.4,0,6.4,0c5.97.29,5.89-10.25.16-10h-6.55Z"/>
        <path class="cls-5" d="M405.54,171.87l.02,28.59h-4.11s-12.3-20.44-12.3-20.44v20.46s-4.38,0-4.38,0l-.02-28.59h4.23s12.17,20.28,12.17,20.28v-20.29s4.38,0,4.38,0Z"/>
        <path class="cls-5" d="M415.42,175.81c2.78-2.86,6.22-4.28,10.25-4.28,4.07,0,7.51,1.41,10.29,4.27,2.82,2.86,4.24,6.3,4.24,10.41,0,4.07-1.41,7.51-4.23,10.38-2.78,2.86-6.22,4.28-10.28,4.28-4.02,0-7.47-1.41-10.25-4.27-2.78-2.86-4.19-6.3-4.2-10.37,0-4.11,1.41-7.55,4.18-10.42ZM415.64,186.22c0,2.86.96,5.31,2.91,7.34,1.95,1.99,4.32,2.99,7.14,2.98,2.82,0,5.19-1,7.14-2.99,1.95-2.03,2.94-4.48,2.94-7.35,0-2.86-1-5.31-2.95-7.34-1.95-2.03-4.32-3.03-7.14-3.02-2.82,0-5.18,1-7.13,3.03-1.95,2.04-2.9,4.48-2.9,7.35Z"/>
      </g>
      <g>
        <path class="cls-6" d="M279.81,63.51c0-6.17-7.31-7.17-16.12-7.67-19.14-1.37-31.74-7.91-32.01-27.05-.78-38.03,67.73-38.08,67.25-.05-7.93,0-13.73,0-21.41.01,0-11.71-23.68-10.69-24.43-.24-.5,6.67,6.05,8.06,13.98,8.93,17.51,1.88,34.63,4.13,34.65,26.17.02,37.02-71.76,38.08-71.28-.71,7.56,0,14.1,0,21.79-.01,0,11.21,27.59,10.94,27.58.61Z"/>
        <path class="cls-6" d="M373.22,21.77c-13.1,0-19.65.01-32.62.02v12.47s29.98-.02,29.98-.02c0,6.67,0,13.35.01,20.02l-29.97.02c0,5.16,0,10.2,0,15.49,12.97,0,20.53-.01,33.75-.02,0,6.55,0,13.35.01,20.02-20.65.01-35.76.02-56.17.04-.02-29.47-.04-58.94-.06-88.15,20.4-.01,34.38-.02,55.03-.04,0,6.55,0,13.35.01,20.15Z"/>
        <path class="cls-6" d="M433.52.44c17.76.11,36.28,9.29,40.57,31.2h-22.17c-3.66-7.54-9.45-10.56-18.4-10.55-14.23,0-21.9,11.1-21.89,24.57,0,14.61,8.58,24.17,21.93,24.16,9.07,0,14.86-2.4,18.88-10.84h-18.76s-.01-19.51-.01-19.51l41.69-.03c.51,8.82.51,17.25-2.5,25.82-6.28,18.39-23.03,25.45-39.27,25.47-22.42.01-45.09-14.96-45.24-45.05.11-30.1,22.76-45.23,45.18-45.24Z"/>
        <path class="cls-6" d="M487.83,45.74c-.04-60.95,90.38-61.01,90.42-.06.04,61.08-90.38,61.14-90.42.06ZM555.2,45.7c-.02-31.73-44.23-31.71-44.2.03.02,31.99,44.23,31.96,44.2-.03Z"/>
        <path class="cls-6" d="M653.43,43.74c7.18,3.65,10.58,10.19,10.59,18-.12,15.36-9.43,27.84-27.44,27.85l-41.3.03-.06-88.15,37.66-.02c15.24-.01,27.46,11.82,27.47,27.06,0,5.29-2.64,11.71-6.92,15.24ZM617.02,21.6v14.23s14.24,0,14.24,0c8.94,0,8.93-14.24-.14-14.23h-14.1ZM617.04,54.6v14.99s18.02-.01,18.02-.01c9.07,0,8.93-14.99-.14-14.99h-17.88Z"/>
      </g>
      <g>
        <path class="cls-4" d="M167.65,34.63c-.79-1.17-2.05-1.97-3.46-2.18-1.74-.27-3.37-.4-4.97-.4-3.56,0-6.82.67-9.75,1.97,3.01-1.51,9.13-4.64,10.52-5.95,1.88-1.76,2.34-4.31,1.05-5.69-1.3-1.38-3.87-1.07-5.74.69-1.32,1.24-4.5,6.56-6.27,9.61,1.7-4.01,2.15-8.63,1.33-13.79-.39-2.45-2.52-4.22-5.06-4.22-.43,0-.85.05-1.27.16-1.44.36-2.65,1.32-3.32,2.62-.67,1.29-.72,2.8-.16,4.13,5.26,12.53,2.29,17.77,2.26,17.82l-.62,1.05,1.07-.61s1.54-.86,4.89-.86c3.77,0,8.26,1.04,13.32,3.07.62.25,1.26.38,1.93.38h0c2.34,0,4.38-1.56,4.97-3.79.36-1.37.1-2.84-.69-4.01"/>
        <path class="cls-1" d="M43.94,14.1c-1.09.9-1.75,2.24-1.82,3.67-.09,1.76-.05,3.39.11,4.99.36,3.54,1.35,6.72,2.95,9.5-1.8-2.84-5.54-8.61-6.99-9.87-1.95-1.68-4.52-1.89-5.76-.46-1.24,1.43-.67,3.96,1.27,5.64,1.37,1.18,6.98,3.81,10.2,5.26-4.16-1.29-8.8-1.26-13.85.09-2.39.64-3.94,2.93-3.69,5.46.04.42.14.84.29,1.25.5,1.4,1.58,2.51,2.94,3.04,1.35.53,2.86.44,4.12-.26,11.93-6.51,17.45-4.09,17.5-4.07l1.11.51-.72-1.01s-1.01-1.45-1.35-4.77c-.38-3.75.19-8.32,1.7-13.56.19-.64.24-1.3.18-1.95h0c-.24-2.33-2-4.2-4.27-4.56-1.4-.21-2.83.19-3.92,1.1"/>
        <path class="cls-3" d="M166.06,137.68c-.84,1.13-2.14,1.87-3.56,2.02-1.75.19-3.38.24-4.98.17-3.56-.16-6.79-.97-9.65-2.41,2.94,1.64,8.91,5.04,10.24,6.42,1.79,1.85,2.14,4.41.78,5.73-1.36,1.32-3.91.89-5.7-.96-1.26-1.3-4.2-6.76-5.83-9.89,1.52,4.08,1.76,8.71.7,13.84-.5,2.43-2.71,4.1-5.24,3.99-.42-.02-.85-.09-1.26-.21-1.43-.43-2.59-1.44-3.2-2.77-.6-1.32-.59-2.83.03-4.14,5.83-12.27,3.1-17.65,3.07-17.7l-.57-1.08,1.04.66s1.5.93,4.84,1.08c3.77.17,8.29-.66,13.45-2.46.63-.22,1.28-.32,1.94-.29h0c2.34.11,4.31,1.76,4.79,4.01.29,1.39-.02,2.84-.87,3.98"/>
        <path class="cls-7" d="M43.83,154.5c-1.13-.85-1.86-2.15-2.01-3.57-.18-1.75-.23-3.38-.15-4.99.18-3.55,1-6.78,2.45-9.64-1.65,2.94-5.08,8.88-6.47,10.21-1.85,1.78-4.42,2.12-5.73.76-1.31-1.36-.87-3.91.98-5.7,1.3-1.26,6.78-4.17,9.91-5.78-4.09,1.5-8.72,1.72-13.84.63-2.42-.51-4.09-2.72-3.97-5.26.02-.43.1-.85.22-1.26.43-1.42,1.45-2.58,2.78-3.19,1.33-.6,2.83-.58,4.14.04,12.25,5.88,17.64,3.18,17.69,3.15l1.08-.57-.66,1.04s-.93,1.5-1.1,4.83c-.19,3.77.62,8.3,2.4,13.46.22.63.31,1.28.28,1.94-.12,2.34-1.78,4.3-4.03,4.77-1.39.29-2.84-.04-3.97-.89"/>
        <path class="cls-5" d="M63.9,101.67c-9.22,0-17.94-3.12-24.46-9.53l-26.94-26.45,1.53-2.1c.13-.18,3.25-4.42,8.38-8.89,7.02-6.13,14.15-9.62,21.2-10.37,4.34-.46,9.12-.34,13.43.35-.38-4.09-.2-8.68.66-13.23,3.58-18.94,16.31-29.08,16.85-29.5l2.07-1.62,26.97,26.48c7.35,7.22,10.85,17.44,9.85,28.76-.99,11.11-6.2,21.99-14.69,30.64-10,10.18-22.84,15.46-34.84,15.46M20.5,65.13l23.14,22.72c12.65,12.42,35.44,9.8,50.81-5.85,7.52-7.66,12.13-17.23,13-26.96.84-9.51-2.02-18.01-8.07-23.95l-23.06-22.64c-3.41,3.41-10.37,11.68-12.72,24.11-1.01,5.33-.9,10.06-.34,13.63,3.33,1.17,5.87,2.8,6.9,4.85,1,2,.63,4.24-1,6-1.74,1.88-4.05,2.36-6.16,1.3-2.1-1.06-3.75-3.74-4.81-7.36-3.67-.81-8.56-1.26-13.95-.69-10.9,1.17-20.13,10.63-23.75,14.83"/>
        <path class="cls-5" d="M77.48,167.8l-2.09-1.54c-.18-.13-4.41-3.26-8.88-8.4-6.11-7.03-9.59-14.17-10.32-21.22-.46-4.35-.32-9.12.38-13.43-4.09.38-8.68.18-13.23-.69-18.93-3.61-29.04-16.37-29.46-16.91l-1.62-2.08,26.53-26.91c14.77-14.98,41.42-12.75,59.39,4.97,17.98,17.72,20.58,44.33,5.81,59.32l-26.51,26.88ZM62.87,122.06c-.81,3.67-1.29,8.56-.72,13.95,1.14,10.86,10.58,20.14,14.79,23.77l22.77-23.09c12.45-12.63,9.87-35.42-5.75-50.82-15.62-15.4-38.45-17.66-50.9-5.03l-22.69,23.01c3.41,3.42,11.65,10.4,24.09,12.77,5.32,1.02,10.06.91,13.63.36,1.17-3.33,2.81-5.87,4.87-6.89,2-1,4.25-.62,6,1.01,1.87,1.75,2.35,4.05,1.28,6.16-1.06,2.1-3.75,3.74-7.37,4.79"/>
        <path class="cls-5" d="M115.41,168.59l-26.77-26.67c-7.3-7.27-10.72-17.51-9.64-28.84,1.06-11.1,6.36-21.94,14.91-30.53,8.55-8.58,19.38-13.92,30.47-15.03,11.32-1.12,21.57,2.26,28.87,9.53l26.75,26.65-1.55,2.08c-.13.18-3.29,4.4-8.45,8.83-7.06,6.08-14.22,9.51-21.27,10.22-4.35.43-9.12.26-13.43-.45.35,4.09.14,8.68-.75,13.23-3.71,18.91-16.52,28.96-17.06,29.38l-2.09,1.61ZM128.59,73.31c-1.18,0-2.39.06-3.61.18-9.71.97-19.24,5.69-26.81,13.29-7.57,7.6-12.26,17.14-13.19,26.86-.91,9.5,1.9,18.03,7.9,24.01l22.89,22.8c3.43-3.39,10.46-11.6,12.9-24.02,1.05-5.32.97-10.05.44-13.63-3.33-1.19-5.85-2.84-6.87-4.9-.99-2.01-.6-4.25,1.05-5.99,1.76-1.86,4.06-2.33,6.17-1.25,2.09,1.08,3.72,3.77,4.75,7.39,3.66.83,8.55,1.33,13.95.79,10.87-1.08,20.19-10.48,23.85-14.66l-22.97-22.89c-5.23-5.22-12.39-7.99-20.43-7.99"/>
        <path class="cls-5" d="M129.37,101.8c-11.92,0-24.7-5.2-34.69-15.25-8.54-8.6-13.82-19.45-14.87-30.55-1.07-11.32,2.37-21.56,9.68-28.82L116.27.57l2.08,1.56c.18.13,4.38,3.31,8.79,8.49,6.04,7.1,9.44,14.27,10.11,21.33.41,4.35.22,9.12-.52,13.43,4.1-.33,8.69-.1,13.22.82,18.89,3.81,28.87,16.66,29.29,17.21l1.6,2.09-26.81,26.64c-6.54,6.5-15.34,9.67-24.65,9.67M98.95,82.32c15.46,15.56,38.27,18.05,50.84,5.55l22.92-22.77c-3.37-3.45-11.55-10.52-23.96-13.02-5.31-1.07-10.05-1.02-13.63-.5-1.21,3.32-2.87,5.84-4.94,6.84-2.02.98-4.25.57-5.99-1.08-1.85-1.77-2.31-4.08-1.22-6.17,1.09-2.09,3.79-3.7,7.42-4.71.85-3.66,1.37-8.55.86-13.94-1.03-10.87-10.38-20.25-14.54-23.92l-23,22.86c-6.01,5.97-8.83,14.49-7.93,23.99.92,9.72,5.59,19.27,13.15,26.88"/>
      </g>
      <path class="cls-2" d="M5.42,188.7h2.06v6.2c0,1.07-.36,1.93-1.09,2.59-.73.66-1.61,1-2.63,1s-1.91-.34-2.65-1c-.74-.66-1.11-1.52-1.11-2.59v-6.2h2.09v6.2c0,.49.17.88.49,1.19.34.31.73.46,1.18.46s.84-.16,1.16-.46c.34-.32.5-.71.5-1.19v-6.2Z"/>
      <polygon class="cls-2" points="19.97 188.7 19.97 198.35 18.13 198.35 14.77 192.51 14.77 198.35 12.73 198.35 12.73 188.7 14.61 188.7 17.91 194.47 17.91 188.7 19.97 188.7"/>
      <path class="cls-2" d="M30.47,196.07h-3.33l-.86,2.28h-2.18l3.58-9.65h2.23l3.57,9.65h-2.16l-.86-2.28ZM27.81,194.29h2l-1.02-3.36-.98,3.36Z"/>
      <polygon class="cls-2" points="50.91 188.7 50.91 198.35 49.08 198.35 45.72 192.51 45.72 198.35 43.68 198.35 43.68 188.7 45.55 188.7 48.86 194.47 48.86 188.7 50.91 188.7"/>
      <path class="cls-2" d="M61.58,188.7h2.06v6.2c0,1.07-.36,1.93-1.09,2.59-.73.66-1.61,1-2.63,1s-1.9-.34-2.65-1c-.74-.66-1.11-1.52-1.11-2.59v-6.2h2.09v6.2c0,.49.17.88.49,1.19.34.31.73.46,1.18.46s.84-.16,1.16-.46c.34-.32.5-.71.5-1.19v-6.2Z"/>
      <polygon class="cls-2" points="68.89 198.35 68.89 188.7 75 188.7 75 190.51 70.94 190.51 70.94 192.71 74.49 192.71 74.49 194.48 70.94 194.48 70.94 196.54 75.12 196.54 75.12 198.35 68.89 198.35"/>
      <polygon class="cls-2" points="79.13 188.7 81.26 188.7 82.98 195.03 84.69 188.7 86.83 188.7 83.89 198.35 82.07 198.35 79.13 188.7"/>
      <path class="cls-2" d="M95.95,196.07h-3.33l-.86,2.28h-2.18l3.58-9.65h2.23l3.57,9.65h-2.16l-.85-2.28ZM93.29,194.29h2l-1.02-3.36-.98,3.36Z"/>
      <polygon class="cls-2" points="114.63 188.7 116.7 188.7 116.7 198.35 114.63 198.35 114.63 194.47 111.2 194.47 111.2 198.35 109.15 198.35 109.15 188.7 111.2 188.7 111.2 192.64 114.63 192.64 114.63 188.7"/>
      <rect class="cls-2" x="122.05" y="188.7" width="2.05" height="9.65"/>
      <path class="cls-2" d="M130.98,195.52c.04.66.56,1.16,1.44,1.16s1.4-.41,1.41-1.02c.01-.49-.25-.83-1.16-1.09l-1.16-.32c-1.67-.52-2.49-1.44-2.49-2.77,0-.85.32-1.54.95-2.07.63-.55,1.43-.81,2.37-.81s1.74.27,2.34.8c.62.53.92,1.25.92,2.16h-2.05c0-.66-.45-1.09-1.25-1.09-.73,0-1.25.41-1.25.97,0,.46.35.79,1.04.98l1.15.36c1.81.52,2.69,1.5,2.65,2.91-.01.6-.18,1.14-.53,1.58-.69.88-1.75,1.25-2.94,1.25-1.05,0-1.89-.28-2.54-.83-.64-.56-.97-1.27-.97-2.16h2.06Z"/>
      <polygon class="cls-2" points="139.85 190.55 139.85 188.7 147.13 188.7 147.13 190.55 144.52 190.55 144.52 198.35 142.45 198.35 142.45 190.55 139.85 190.55"/>
      <path class="cls-2" d="M152.36,190.05c.95-.97,2.11-1.46,3.47-1.46s2.54.49,3.47,1.46c.95.97,1.43,2.13,1.43,3.5s-.48,2.54-1.43,3.5c-.95.97-2.11,1.44-3.47,1.44s-2.52-.47-3.47-1.44c-.94-.96-1.41-2.14-1.41-3.5s.47-2.53,1.41-3.5M157.85,191.47c-.55-.57-1.22-.85-2.02-.85s-1.47.28-2.02.85c-.55.57-.82,1.26-.82,2.07s.28,1.5.82,2.07c.55.56,1.22.84,2.02.84s1.47-.28,2.02-.86c.56-.57.84-1.26.84-2.06s-.28-1.5-.84-2.07"/>
      <path class="cls-2" d="M172.67,198.35h-2.46l-2.16-3.33h-.46v3.33h-2.06v-9.65h3.95c1.02,0,1.82.31,2.37.94.56.61.84,1.36.84,2.23,0,1.47-.84,2.73-2.41,3.07l2.39,3.42ZM167.58,190.51v2.72h1.74c.74,0,1.22-.67,1.22-1.36s-.45-1.36-1.16-1.36h-1.79Z"/>
      <rect class="cls-2" x="177.53" y="188.7" width="2.05" height="9.65"/>
      <path class="cls-2" d="M190.07,196.07h-3.33l-.86,2.28h-2.18l3.58-9.65h2.23l3.57,9.65h-2.16l-.86-2.28ZM187.41,194.29h2l-1.02-3.36-.98,3.36Z"/>
    </g>
  </g>
</svg>