<?xml version="1.0" encoding="UTF-8"?>
<svg id="Capa_2" data-name="Capa 2" xmlns="http://www.w3.org/2000/svg" viewBox="0 0 1822.63 460.27">
  <defs>
    <style>
      .cls-1 {
        fill: #572672;
      }

      .cls-2 {
        fill: #ab182d;
      }

      .cls-3 {
        fill: #d0b787;
      }

      .cls-4 {
        fill: #a21b5c;
      }

      .cls-5 {
        fill: #f0811a;
      }

      .cls-6 {
        fill: #0bb5ce;
      }

      .cls-7 {
        fill: #77b82e;
      }
    </style>
  </defs>
  <g id="Letra">
    <g>
      <path class="cls-2" d="M354.31,107.2s2.96-6.86,2.96-14.93c0-9.11-2.5-19.93-7.41-32.15-.6-1.49-.91-3.05-.91-4.65h0c0-5.65,3.76-10.59,9.15-11.99,3.31-.86,6.85-.25,9.69,1.67,2.83,1.9,4.75,4.95,5.27,8.36.65,4.2.96,8.12.96,12,0,8.59-1.6,16.47-4.75,23.53,3.63-7.27,11.19-22.03,14.36-25.4,4.25-4.53,10.45-6.03,15.37-1.11,4.35,4.35,2.54,10.24-1.99,14.49-3.37,3.17-18.13,10.73-25.4,14.36,7.06-3.15,14.94-4.75,23.53-4.75,3.88,0,7.8.31,12,.96,3.41.52,6.45,2.44,8.36,5.27,1.92,2.84,2.53,6.38,1.67,9.69-1.4,5.38-6.33,9.15-11.98,9.15h0c-1.6,0-3.16-.31-4.65-.91-12.23-4.92-22.2-6.57-31.31-6.57-8.07,0-14.9,2.99-14.9,2.99"/>
      <path class="cls-3" d="M337.3,122.73c5.84-54.51-23.69-100.51-52.69-122.73,0,0-45.04,44.99-59.82,59.82-57.57,57.77-43.16,133.92-.75,176.59,42.14,41.87,118.81,56.8,176.17-1.17l59.82-59.82c-22.95-28.49-68.15-58.47-122.73-52.69M386.67,224.03c-47.88,48.38-114.98,34.78-150.16-.17-35.39-35.62-50.04-101.03-1.99-149.24,12.33-12.37,49.98-49.98,49.98-49.98,22.06,16.9,38.35,54.63,35.64,102.39-4.67,1.47-9.35,3.27-12.69,5.36-.35.21-.7.43-1.03.68-.7.5-1.34,1-1.87,1.53-5.78,5.78-5.78,15.16,0,20.94,5.78,5.78,15.16,5.78,20.94,0,.52-.52,1.03-1.17,1.53-1.87.24-.34.47-.68.68-1.03,2.08-3.32,3.88-7.98,5.34-12.63,47.81-2.56,84.78,13.74,102.24,35.42l-48.61,48.61Z"/>
      <path class="cls-3" d="M122.97,337.55c-5.84,54.51,23.69,100.51,52.69,122.73,0,0,45.04-44.99,59.82-59.82,57.57-57.77,43.16-133.92.75-176.59-42.14-41.87-118.81-56.8-176.17,1.17L.25,284.85c22.95,28.49,68.15,58.47,122.73,52.69M73.61,236.25c47.88-48.38,114.98-34.78,150.16.17,35.39,35.62,50.04,101.03,1.99,149.24-12.33,12.37-49.98,49.98-49.98,49.98-22.06-16.9-38.35-54.63-35.64-102.39,4.67-1.47,9.35-3.27,12.69-5.36.35-.21.7-.43,1.03-.68.7-.5,1.34-1,1.87-1.53,5.78-5.78,5.78-15.16,0-20.94-5.78-5.78-15.16-5.78-20.94,0-.52.52-1.03,1.17-1.53,1.87-.24.34-.47.68-.68,1.03-2.08,3.32-3.88,7.98-5.34,12.63-47.81,2.56-84.78-13.74-102.24-35.42l48.61-48.61Z"/>
      <path class="cls-3" d="M122.73,122.97c-54.51-5.84-100.51,23.69-122.73,52.69,0,0,44.99,45.04,59.82,59.82,57.77,57.57,133.92,43.16,176.59.75,41.87-42.14,56.8-118.81-1.17-176.17L175.42.25c-28.49,22.95-58.47,68.15-52.69,122.73M224.03,73.61c48.38,47.88,34.78,114.98-.17,150.16-35.62,35.39-101.03,50.04-149.24,1.99-12.37-12.33-49.98-49.98-49.98-49.98,16.9-22.06,54.63-38.35,102.39-35.64,1.47,4.67,3.27,9.35,5.36,12.69.21.35.43.7.68,1.03.5.7,1,1.34,1.53,1.87,5.78,5.78,15.16,5.78,20.94,0,5.78-5.78,5.78-15.16,0-20.94-.52-.52-1.17-1.03-1.87-1.53-.34-.24-.68-.47-1.03-.68-3.32-2.08-7.98-3.88-12.63-5.34-2.56-47.81,13.74-84.78,35.42-102.24l48.61,48.61Z"/>
      <path class="cls-3" d="M337.55,337.3c54.51,5.84,100.51-23.69,122.73-52.69,0,0-44.99-45.04-59.82-59.82-57.77-57.57-133.92-43.16-176.59-.75-41.87,42.14-56.8,118.81,1.17,176.17l59.82,59.82c28.49-22.95,58.47-68.15,52.69-122.73M236.25,386.67c-48.38-47.88-34.78-114.98.17-150.16,35.62-35.39,101.03-50.04,149.24-1.99,12.37,12.33,49.98,49.98,49.98,49.98-16.9,22.06-54.63,38.35-102.39,35.64-1.47-4.67-3.27-9.35-5.36-12.69-.21-.35-.43-.7-.68-1.03-.5-.7-1-1.34-1.53-1.87-5.78-5.78-15.16-5.78-20.94,0-5.78,5.78-5.78,15.16,0,20.94.52.52,1.17,1.03,1.87,1.53.34.24.68.47,1.03.68,3.32,2.08,7.98,3.88,12.63,5.34,2.56,47.81-13.74,84.78-35.42,102.24l-48.61-48.61Z"/>
      <path class="cls-7" d="M351.86,352.45s6.86,2.96,14.93,2.96c9.11,0,19.93-2.5,32.15-7.41,1.49-.6,3.05-.91,4.65-.91h0c5.65,0,10.58,3.76,11.98,9.15.86,3.31.25,6.85-1.67,9.69-1.9,2.83-4.95,4.75-8.36,5.27-4.2.65-8.12.96-12,.96-8.59,0-16.47-1.6-23.53-4.75,7.27,3.63,22.03,11.19,25.4,14.36,4.53,4.25,6.03,10.45,1.11,15.37-4.35,4.35-10.24,2.54-14.49-1.99-3.17-3.37-10.73-18.13-14.36-25.4,3.15,7.06,4.75,14.94,4.75,23.53,0,3.88-.31,7.8-.96,12-.52,3.41-2.44,6.45-5.27,8.36-2.84,1.92-6.38,2.53-9.69,1.67-5.38-1.4-9.15-6.33-9.15-11.98h0c0-1.6.31-3.16.91-4.65,4.92-12.23,6.57-22.2,6.57-31.31,0-8.07-2.99-14.9-2.99-14.9"/>
      <path class="cls-6" d="M107.17,353.44s-2.96,6.87-2.96,14.93c0,9.11,2.5,19.93,7.41,32.15.6,1.49.91,3.05.91,4.65h0c0,5.65-3.76,10.59-9.15,11.99-3.31.86-6.85.25-9.69-1.67-2.83-1.9-4.75-4.95-5.27-8.36-.65-4.2-.96-8.12-.96-12,0-8.59,1.6-16.47,4.75-23.53-3.63,7.27-11.19,22.03-14.36,25.4-4.25,4.53-10.45,6.03-15.37,1.11-4.35-4.35-2.54-10.24,1.99-14.49,3.37-3.17,18.13-10.73,25.4-14.36-7.06,3.15-14.94,4.75-23.53,4.75-3.88,0-7.8-.31-12-.96-3.41-.52-6.45-2.44-8.36-5.27-1.92-2.84-2.53-6.38-1.67-9.69,1.4-5.38,6.33-9.15,11.98-9.15h0c1.6,0,3.16.31,4.65.91,12.23,4.92,22.2,6.57,31.31,6.57,8.07,0,14.9-2.99,14.9-2.99"/>
      <path class="cls-5" d="M109.63,108.2s-6.86-2.96-14.93-2.96c-9.11,0-19.93,2.5-32.15,7.41-1.49.6-3.05.91-4.65.91h0c-5.65,0-10.58-3.76-11.98-9.15-.86-3.31-.25-6.85,1.67-9.69,1.9-2.83,4.95-4.75,8.36-5.27,4.2-.65,8.12-.96,12-.96,8.59,0,16.47,1.6,23.53,4.75-7.27-3.63-22.03-11.19-25.4-14.36-4.53-4.25-6.03-10.45-1.11-15.37,4.35-4.35,10.24-2.54,14.49,1.99,3.17,3.37,10.73,18.13,14.36,25.4-3.15-7.06-4.75-14.94-4.75-23.53,0-3.88.31-7.8.96-12,.52-3.41,2.44-6.45,5.27-8.36,2.84-1.92,6.38-2.53,9.69-1.67,5.38,1.4,9.15,6.33,9.15,11.98h0c0,1.6-.31,3.16-.91,4.65-4.92,12.23-6.57,22.2-6.57,31.31,0,8.07,2.99,14.9,2.99,14.9"/>
      <g>
        <path class="cls-4" d="M673.87,276.48h11.53v34.74c0,5.96-2.04,10.82-6.11,14.51-4.08,3.68-9.02,5.57-14.74,5.57s-10.67-1.88-14.82-5.57c-4.16-3.68-6.2-8.55-6.2-14.51v-34.74h11.69v34.74c0,2.75.94,4.94,2.74,6.66,1.88,1.73,4.08,2.59,6.58,2.59s4.71-.86,6.51-2.59c1.88-1.8,2.82-4,2.82-6.66v-34.74Z"/>
        <polygon class="cls-4" points="755.34 276.48 755.34 330.5 745.07 330.5 726.25 297.81 726.25 330.5 714.8 330.5 714.8 276.48 725.31 276.48 743.81 308.78 743.81 276.48 755.34 276.48"/>
        <path class="cls-4" d="M814.15,317.72h-18.66l-4.78,12.78h-12.23l20.07-54.02h12.47l19.99,54.02h-12.08l-4.78-12.78ZM799.25,307.76h11.21l-5.72-18.82-5.49,18.82Z"/>
        <polygon class="cls-4" points="928.62 276.48 928.62 330.5 918.35 330.5 899.53 297.81 899.53 330.5 888.09 330.5 888.09 276.48 898.59 276.48 917.1 308.78 917.1 276.48 928.62 276.48"/>
        <path class="cls-4" d="M988.37,276.48h11.53v34.74c0,5.96-2.04,10.82-6.11,14.51-4.08,3.68-9.02,5.57-14.74,5.57s-10.66-1.88-14.82-5.57c-4.16-3.68-6.2-8.55-6.2-14.51v-34.74h11.68v34.74c0,2.75.94,4.94,2.75,6.66,1.88,1.73,4.08,2.59,6.58,2.59s4.71-.86,6.51-2.59c1.88-1.8,2.82-4,2.82-6.66v-34.74Z"/>
        <polygon class="cls-4" points="1029.3 330.5 1029.3 276.48 1063.49 276.48 1063.49 286.59 1040.75 286.59 1040.75 298.9 1060.67 298.9 1060.67 308.86 1040.75 308.86 1040.75 320.39 1064.2 320.39 1064.2 330.5 1029.3 330.5"/>
        <polygon class="cls-4" points="1086.62 276.48 1098.54 276.48 1108.18 311.92 1117.75 276.48 1129.75 276.48 1113.28 330.5 1103.09 330.5 1086.62 276.48"/>
        <path class="cls-4" d="M1180.79,317.72h-18.66l-4.79,12.78h-12.23l20.07-54.02h12.46l20,54.02h-12.07l-4.78-12.78ZM1165.89,307.76h11.21l-5.72-18.82-5.49,18.82Z"/>
        <polygon class="cls-4" points="1285.39 276.48 1297 276.48 1297 330.5 1285.39 330.5 1285.39 308.78 1266.18 308.78 1266.18 330.5 1254.73 330.5 1254.73 276.48 1266.18 276.48 1266.18 298.51 1285.39 298.51 1285.39 276.48"/>
        <rect class="cls-4" x="1326.95" y="276.48" width="11.45" height="54.02"/>
        <path class="cls-4" d="M1376.98,314.66c.23,3.68,3.14,6.51,8.08,6.51s7.84-2.28,7.92-5.73c.08-2.74-1.41-4.63-6.51-6.12l-6.51-1.8c-9.33-2.9-13.95-8.08-13.95-15.53,0-4.78,1.8-8.63,5.33-11.6,3.53-3.06,8-4.55,13.25-4.55s9.72,1.49,13.09,4.47c3.45,2.98,5.17,6.98,5.17,12.07h-11.45c0-3.68-2.51-6.12-6.98-6.12-4.08,0-6.98,2.28-6.98,5.41,0,2.59,1.96,4.39,5.8,5.49l6.43,2.04c10.11,2.9,15.06,8.39,14.82,16.31-.08,3.37-1.02,6.35-2.98,8.86-3.84,4.94-9.8,6.98-16.46,6.98-5.88,0-10.59-1.57-14.19-4.63-3.61-3.14-5.41-7.13-5.41-12.07h11.53Z"/>
        <polygon class="cls-4" points="1426.61 286.83 1426.61 276.48 1467.38 276.48 1467.38 286.83 1452.8 286.83 1452.8 330.5 1441.19 330.5 1441.19 286.83 1426.61 286.83"/>
        <path class="cls-4" d="M1496.71,284.01c5.33-5.41,11.84-8.15,19.44-8.15s14.19,2.75,19.45,8.15c5.33,5.41,8,11.92,8,19.6s-2.67,14.19-8,19.6c-5.33,5.41-11.84,8.08-19.45,8.08s-14.11-2.67-19.44-8.08c-5.25-5.41-7.92-12-7.92-19.6s2.67-14.19,7.92-19.6M1527.44,292c-3.06-3.22-6.82-4.78-11.29-4.78s-8.23,1.57-11.29,4.78c-3.06,3.22-4.62,7.06-4.62,11.61s1.57,8.39,4.62,11.6c3.06,3.14,6.82,4.7,11.29,4.7s8.23-1.57,11.29-4.78c3.14-3.21,4.71-7.06,4.71-11.52s-1.57-8.39-4.71-11.61"/>
        <path class="cls-4" d="M1610.4,330.5h-13.8l-12.08-18.66h-2.59v18.66h-11.53v-54.03h22.11c5.72,0,10.2,1.73,13.25,5.25,3.14,3.45,4.71,7.61,4.71,12.47,0,8.23-4.71,15.29-13.49,17.17l13.41,19.13ZM1581.94,286.59v15.21h9.72c4.15,0,6.82-3.76,6.82-7.6s-2.51-7.61-6.51-7.61h-10.04Z"/>
        <rect class="cls-4" x="1637.61" y="276.48" width="11.45" height="54.02"/>
        <path class="cls-4" d="M1707.86,317.72h-18.66l-4.78,12.78h-12.23l20.07-54.02h12.47l19.99,54.02h-12.07l-4.78-12.78ZM1692.97,307.76h11.21l-5.72-18.82-5.49,18.82Z"/>
      </g>
      <g>
        <polygon class="cls-1" points="545.62 87.17 545.62 49.09 669.38 49.09 669.38 87.17 628.68 87.17 628.68 215.69 586.56 215.69 586.56 87.17 545.62 87.17"/>
        <polygon class="cls-1" points="743.15 177.37 803.6 177.37 803.6 215.69 700.31 215.69 700.31 49.1 743.15 49.1 743.15 177.37"/>
        <path class="cls-1" d="M933.77,194.74h-65.68l-9.76,20.94h-41.65v-6.19l74.97-162.55h18.33l75.2,162.55v6.19h-41.65l-9.76-20.94ZM900.69,114.54l-18.8,43.79h38.08l-19.28-43.79Z"/>
        <polygon class="cls-1" points="1069.9 163.33 1038 215.69 993.5 215.69 993.5 209.26 1047.29 127.39 999.21 55.52 999.21 49.09 1042.76 49.09 1069.9 92.41 1071.09 92.41 1098.93 49.09 1141.77 49.09 1141.77 55.52 1093.69 127.39 1147.72 209.26 1147.72 215.69 1102.98 215.69 1071.32 163.33 1069.9 163.33"/>
        <path class="cls-1" d="M1252.19,47.19c34.51,0,71.87,18.8,78.3,63.3h-41.88c-5.95-16.9-18.56-24.51-36.41-24.51-24.99,0-41.41,18.8-41.41,46.41,0,24.51,16.18,45.93,41.41,46.17,18.09,0,32.6-9.04,37.13-26.89h41.89c-6.19,47.12-43.55,65.68-79.01,65.68-42.36.24-85.2-28.32-85.44-84.96.24-56.64,43.08-85.2,85.44-85.2"/>
        <path class="cls-1" d="M1464.7,194.74h-65.68l-9.76,20.94h-41.65v-6.19l74.97-162.55h18.33l75.2,162.55v6.19h-41.65l-9.76-20.94ZM1431.62,114.54l-18.8,43.79h38.08l-19.28-43.79Z"/>
        <polygon class="cls-1" points="1585.36 177.37 1645.8 177.37 1645.8 215.69 1542.52 215.69 1542.52 49.1 1585.36 49.1 1585.36 177.37"/>
        <path class="cls-1" d="M1771.22,194.74h-65.68l-9.76,20.94h-41.65v-6.19l74.97-162.55h18.33l75.2,162.55v6.19h-41.65l-9.76-20.94ZM1738.14,114.54l-18.8,43.79h38.08l-19.28-43.79Z"/>
      </g>
      <g>
        <path class="cls-1" d="M928,411.64h-32.93v-5.87l20.79-24.66c1.78-2.09,2.71-3.94,2.71-5.72,0-2.78-2.4-5.02-6.34-5.02s-6.57,2.94-7.19,7.03l-9.89-1.7c1.55-9.66,8.19-15.69,17.7-15.69,4.56,0,8.5,1.47,11.67,4.33,3.25,2.86,4.87,6.57,4.87,11.05s-1.78,8.81-5.33,12.83l-11.67,13.22h15.61v10.2Z"/>
        <path class="cls-1" d="M974.69,360c7.11,0,12.21,2.78,14.92,7.73,2.78,4.95,3.86,10.82,3.86,18.55s-1.08,13.45-3.86,18.4c-2.71,4.95-7.81,7.73-14.92,7.73-12.6,0-18.94-8.73-18.94-26.13s6.34-26.28,18.94-26.28ZM974.69,401.9c5.33,0,7.96-5.18,7.96-15.61s-2.63-15.77-7.96-15.77-8.12,5.26-8.12,15.77,2.71,15.61,8.12,15.61Z"/>
        <path class="cls-1" d="M1052.61,411.64h-32.93v-5.87l20.79-24.66c1.78-2.09,2.71-3.94,2.71-5.72,0-2.78-2.4-5.02-6.34-5.02s-6.57,2.94-7.19,7.03l-9.89-1.7c1.55-9.66,8.19-15.69,17.7-15.69,4.56,0,8.5,1.47,11.67,4.33,3.25,2.86,4.87,6.57,4.87,11.05s-1.78,8.81-5.33,12.83l-11.67,13.22h15.61v10.2Z"/>
        <path class="cls-1" d="M1098.37,360.31v51.32h-10.82v-36.25l-8.66,3.71v-9.51l19.48-9.27Z"/>
        <path class="cls-1" d="M1164.15,396.87v-8.5h27.29v8.5h-27.29Z"/>
        <path class="cls-1" d="M1287.43,411.64h-32.93v-5.87l20.79-24.66c1.78-2.09,2.71-3.94,2.71-5.72,0-2.78-2.4-5.02-6.34-5.02s-6.57,2.94-7.19,7.03l-9.89-1.7c1.55-9.66,8.19-15.69,17.7-15.69,4.56,0,8.5,1.47,11.67,4.33,3.25,2.86,4.87,6.57,4.87,11.05s-1.78,8.81-5.33,12.83l-11.67,13.22h15.61v10.2Z"/>
        <path class="cls-1" d="M1334.12,360c7.11,0,12.21,2.78,14.92,7.73,2.78,4.95,3.86,10.82,3.86,18.55s-1.08,13.45-3.86,18.4c-2.71,4.95-7.81,7.73-14.92,7.73-12.6,0-18.94-8.73-18.94-26.13s6.34-26.28,18.94-26.28ZM1334.12,401.9c5.33,0,7.96-5.18,7.96-15.61s-2.63-15.77-7.96-15.77-8.12,5.26-8.12,15.77,2.71,15.61,8.12,15.61Z"/>
        <path class="cls-1" d="M1412.04,411.64h-32.93v-5.87l20.79-24.66c1.78-2.09,2.71-3.94,2.71-5.72,0-2.78-2.4-5.02-6.34-5.02s-6.57,2.94-7.19,7.03l-9.89-1.7c1.55-9.66,8.19-15.69,17.7-15.69,4.56,0,8.5,1.47,11.67,4.33,3.25,2.86,4.87,6.57,4.87,11.05s-1.78,8.81-5.33,12.83l-11.67,13.22h15.61v10.2Z"/>
        <path class="cls-1" d="M1438.63,361.01h38.18l-22.34,50.63h-12.29l17.86-40.66h-21.41v-9.97Z"/>
      </g>
    </g>
  </g>
</svg>